<?xml version="1.0" standalone="no"?>
<svg xmlns:xlink="http://www.w3.org/1999/xlink" id="wave" style="transform:rotate(180deg); transition: 0.3s" viewBox="0 0 1440 130" version="1.1" xmlns="http://www.w3.org/2000/svg"><defs><linearGradient id="sw-gradient-0" x1="0" x2="0" y1="1" y2="0"><stop stop-color="rgba(255, 249, 234, 1)" offset="0%"/><stop stop-color="rgba(255, 249, 234, 1)" offset="100%"/></linearGradient></defs><path style="transform:translate(0, 0px); opacity:1" fill="url(#sw-gradient-0)" d="M0,52L24,43.3C48,35,96,17,144,8.7C192,0,240,0,288,0C336,0,384,0,432,17.3C480,35,528,69,576,69.3C624,69,672,35,720,36.8C768,39,816,78,864,84.5C912,91,960,65,1008,49.8C1056,35,1104,30,1152,43.3C1200,56,1248,87,1296,95.3C1344,104,1392,91,1440,75.8C1488,61,1536,43,1584,32.5C1632,22,1680,17,1728,26C1776,35,1824,56,1872,65C1920,74,1968,69,2016,67.2C2064,65,2112,65,2160,58.5C2208,52,2256,39,2304,32.5C2352,26,2400,26,2448,36.8C2496,48,2544,69,2592,75.8C2640,82,2688,74,2736,69.3C2784,65,2832,65,2880,60.7C2928,56,2976,48,3024,39C3072,30,3120,22,3168,21.7C3216,22,3264,30,3312,41.2C3360,52,3408,65,3432,71.5L3456,78L3456,130L3432,130C3408,130,3360,130,3312,130C3264,130,3216,130,3168,130C3120,130,3072,130,3024,130C2976,130,2928,130,2880,130C2832,130,2784,130,2736,130C2688,130,2640,130,2592,130C2544,130,2496,130,2448,130C2400,130,2352,130,2304,130C2256,130,2208,130,2160,130C2112,130,2064,130,2016,130C1968,130,1920,130,1872,130C1824,130,1776,130,1728,130C1680,130,1632,130,1584,130C1536,130,1488,130,1440,130C1392,130,1344,130,1296,130C1248,130,1200,130,1152,130C1104,130,1056,130,1008,130C960,130,912,130,864,130C816,130,768,130,720,130C672,130,624,130,576,130C528,130,480,130,432,130C384,130,336,130,288,130C240,130,192,130,144,130C96,130,48,130,24,130L0,130Z"/></svg>