<?xml version="1.0" standalone="no"?>
<svg xmlns:xlink="http://www.w3.org/1999/xlink" id="wave" style="transform:rotate(0deg); transition: 0.3s" viewBox="0 0 1440 270" version="1.1" xmlns="http://www.w3.org/2000/svg"><defs><linearGradient id="sw-gradient-0" x1="0" x2="0" y1="1" y2="0"><stop stop-color="rgba(44, 0, 91, 1)" offset="0%"/><stop stop-color="rgba(44, 0, 91, 1)" offset="100%"/></linearGradient></defs><path style="transform:translate(0, 0px); opacity:1" fill="url(#sw-gradient-0)" d="M0,135L48,139.5C96,144,192,153,288,171C384,189,480,216,576,225C672,234,768,225,864,184.5C960,144,1056,72,1152,54C1248,36,1344,72,1440,85.5C1536,99,1632,90,1728,81C1824,72,1920,63,2016,85.5C2112,108,2208,162,2304,153C2400,144,2496,72,2592,45C2688,18,2784,36,2880,58.5C2976,81,3072,108,3168,108C3264,108,3360,81,3456,72C3552,63,3648,72,3744,99C3840,126,3936,171,4032,175.5C4128,180,4224,144,4320,148.5C4416,153,4512,198,4608,216C4704,234,4800,225,4896,193.5C4992,162,5088,108,5184,94.5C5280,81,5376,108,5472,135C5568,162,5664,189,5760,175.5C5856,162,5952,108,6048,85.5C6144,63,6240,72,6336,94.5C6432,117,6528,153,6624,162C6720,171,6816,153,6864,144L6912,135L6912,270L6864,270C6816,270,6720,270,6624,270C6528,270,6432,270,6336,270C6240,270,6144,270,6048,270C5952,270,5856,270,5760,270C5664,270,5568,270,5472,270C5376,270,5280,270,5184,270C5088,270,4992,270,4896,270C4800,270,4704,270,4608,270C4512,270,4416,270,4320,270C4224,270,4128,270,4032,270C3936,270,3840,270,3744,270C3648,270,3552,270,3456,270C3360,270,3264,270,3168,270C3072,270,2976,270,2880,270C2784,270,2688,270,2592,270C2496,270,2400,270,2304,270C2208,270,2112,270,2016,270C1920,270,1824,270,1728,270C1632,270,1536,270,1440,270C1344,270,1248,270,1152,270C1056,270,960,270,864,270C768,270,672,270,576,270C480,270,384,270,288,270C192,270,96,270,48,270L0,270Z"/></svg>